<svg width="80" height="60" viewBox="0 0 80 60" fill="none" xmlns="http://www.w3.org/2000/svg">
<g clip-path="url(#clip0_691_1514)">
<path fill-rule="evenodd" clip-rule="evenodd" d="M0 0H114V4.61719H0V0ZM0 9.23438H114V13.8516H0V9.23438ZM0 18.457H114V23.0859H0V18.457ZM0 27.6914H114V32.3086H0V27.6914ZM0 36.9258H114V41.543H0V36.9258ZM0 46.1484H114V50.7656H0V46.1484ZM0 55.3828H114V60H0V55.3828Z" fill="#BD3D44"/>
<path fill-rule="evenodd" clip-rule="evenodd" d="M0 4.61719H114V9.23438H0V4.61719ZM0 13.8516H114V18.457H0V13.8516ZM0 23.0742H114V27.6914H0V23.0742ZM0 32.3086H114V36.9258H0V32.3086ZM0 41.543H114V46.1602H0V41.543ZM0 50.7656H114V55.3828H0V50.7656Z" fill="white"/>
<path fill-rule="evenodd" clip-rule="evenodd" d="M0 0H45.5977V32.3086H0V0Z" fill="#192F5D"/>
<path fill-rule="evenodd" clip-rule="evenodd" d="M3.79688 1.38281L4.21875 2.66016H5.55469L4.47656 3.44531L4.88672 4.73438L3.79688 3.9375L2.71875 4.72266L3.12891 3.44531L2.03906 2.66016H3.39844L3.79688 1.38281ZM11.4023 1.38281L11.8125 2.66016H13.1602L12.0703 3.44531L12.4805 4.73438L11.4023 3.9375L10.3125 4.72266L10.7227 3.44531L9.64453 2.66016H10.9805L11.4023 1.38281ZM18.9961 1.38281L19.418 2.66016H20.7422L19.6641 3.44531L20.0742 4.73438L18.9844 3.9375L17.9063 4.72266L18.3164 3.44531L17.2266 2.66016H18.5742L18.9961 1.38281ZM26.6016 1.38281L27.0117 2.66016H28.3594L27.2695 3.44531L27.6914 4.73438L26.6016 3.9375L25.5117 4.72266L25.9336 3.44531L24.8438 2.66016H26.1797L26.6016 1.38281ZM34.1953 1.38281L34.6172 2.66016H35.9531L34.875 3.44531L35.2852 4.73438L34.1953 3.9375L33.1172 4.72266L33.5273 3.44531L32.4492 2.66016H33.7852L34.1953 1.38281ZM41.8008 1.38281L42.2109 2.66016H43.5586L42.4688 3.44531L42.8906 4.73438L41.8008 3.9375L40.7109 4.72266L41.1328 3.44531L40.043 2.66016H41.3906L41.8008 1.38281ZM7.60547 4.61719L8.01563 5.89453H9.36328L8.27344 6.67969L8.67188 7.95703L7.61719 7.17188L6.52734 7.95703L6.91406 6.67969L5.85938 5.89453H7.19531L7.60547 4.61719ZM15.1992 4.61719L15.6211 5.89453H16.957L15.8672 6.67969L16.2891 7.95703L15.1992 7.17188L14.1094 7.95703L14.5313 6.67969L13.4414 5.89453H14.7891L15.1992 4.61719ZM22.8047 4.61719L23.2148 5.89453H24.5625L23.4727 6.67969L23.8828 7.95703L22.8047 7.17188L21.7148 7.95703L22.125 6.67969L21.0469 5.89453H22.3828L22.8047 4.61719ZM30.3984 4.61719L30.8203 5.89453H32.1563L31.0664 6.67969L31.4883 7.95703L30.3984 7.17188L29.3203 7.95703L29.7305 6.67969L28.6406 5.89453H30L30.3984 4.61719ZM38.0039 4.61719L38.4141 5.89453H39.7617L38.6719 6.67969L39.082 7.95703L38.0039 7.17188L36.9141 7.95703L37.3242 6.67969L36.2461 5.89453H37.582L38.0039 4.61719ZM3.79688 7.83984L4.21875 9.14062H5.55469L4.47656 9.92578L4.88672 11.2031L3.79688 10.4062L2.71875 11.2031L3.12891 9.91406L2.03906 9.12891H3.39844L3.79688 7.83984ZM11.4023 7.83984L11.8125 9.12891H13.1602L12.0703 9.91406L12.4805 11.1914L11.4023 10.3945L10.3125 11.1914L10.7227 9.90234L9.64453 9.11719H10.9805L11.4023 7.83984ZM18.9961 7.83984L19.418 9.12891H20.7422L19.6641 9.91406L20.0742 11.1914L18.9844 10.3945L17.9063 11.1914L18.3164 9.90234L17.2266 9.11719H18.5742L18.9961 7.83984ZM26.6016 7.83984L27.0117 9.12891H28.3594L27.2695 9.91406L27.6914 11.1914L26.6016 10.3945L25.5117 11.1914L25.9336 9.90234L24.8438 9.11719H26.1797L26.6016 7.83984ZM34.1953 7.83984L34.6172 9.12891H35.9531L34.875 9.91406L35.2852 11.1914L34.1953 10.3945L33.1172 11.1914L33.5273 9.90234L32.4492 9.11719H33.7852L34.1953 7.83984ZM41.8008 7.83984L42.2109 9.12891H43.5586L42.4688 9.91406L42.8906 11.1914L41.8008 10.3945L40.7109 11.1914L41.1328 9.90234L40.043 9.11719H41.3906L41.8008 7.83984ZM7.60547 11.0742L8.01563 12.3516H9.36328L8.27344 13.1367L8.68359 14.4258L7.60547 13.6289L6.51562 14.4141L6.92578 13.1367L5.84766 12.3516H7.18359L7.60547 11.0742ZM15.1992 11.0742L15.6211 12.3516H16.957L15.8672 13.1367L16.2891 14.4258L15.1992 13.6289L14.1094 14.4141L14.5313 13.1367L13.4414 12.3516H14.7891L15.1992 11.0742ZM22.8047 11.0742L23.2148 12.3516H24.5625L23.4727 13.1367L23.8828 14.4258L22.8047 13.6289L21.7148 14.4141L22.125 13.1367L21.0469 12.3516H22.3828L22.8047 11.0742ZM30.3984 11.0742L30.8203 12.3516H32.1563L31.0781 13.1367L31.4883 14.4258L30.3984 13.6289L29.3203 14.4141L29.7305 13.1367L28.6406 12.3516H30L30.3984 11.0742ZM38.0039 11.0742L38.4141 12.3516H39.7617L38.6719 13.1367L39.082 14.4258L38.0039 13.6289L36.9141 14.4141L37.3242 13.1367L36.2461 12.3516H37.582L38.0039 11.0742ZM3.79688 14.3086L4.21875 15.5859H5.55469L4.47656 16.3711L4.88672 17.6602L3.79688 16.8633L2.71875 17.6484L3.12891 16.3711L2.03906 15.5859H3.39844L3.79688 14.3086ZM11.4023 14.3086L11.8125 15.5859H13.1602L12.0703 16.3711L12.4805 17.6484L11.4023 16.8633L10.3125 17.6484L10.7227 16.3711L9.64453 15.5859H10.9805L11.4023 14.3086ZM18.9961 14.3086L19.418 15.5859H20.7422L19.6641 16.3711L20.0742 17.6602L18.9844 16.8633L17.9063 17.6484L18.3164 16.3711L17.2266 15.5859H18.5742L18.9961 14.3086ZM26.6016 14.3086L27.0117 15.5859H28.3594L27.2695 16.3711L27.6914 17.6602L26.6016 16.8633L25.5117 17.6484L25.9336 16.3711L24.8438 15.5859H26.1797L26.6016 14.3086ZM34.1953 14.3086L34.6172 15.5859H35.9531L34.875 16.3711L35.2852 17.6602L34.1953 16.8633L33.1172 17.6484L33.5273 16.3711L32.4492 15.5859H33.7852L34.1953 14.3086ZM41.8008 14.3086L42.2109 15.5859H43.5586L42.4688 16.3711L42.8906 17.6602L41.8008 16.8633L40.7109 17.6484L41.1328 16.3711L40.043 15.5859H41.3906L41.8008 14.3086ZM7.60547 17.543L8.01563 18.8203H9.36328L8.27344 19.6055L8.68359 20.8828L7.60547 20.0859L6.51562 20.8828L6.92578 19.5937L5.84766 18.8086H7.18359L7.60547 17.543ZM15.1992 17.543L15.6211 18.8203H16.957L15.8672 19.6055L16.2891 20.8828L15.1992 20.0859L14.1094 20.8828L14.5313 19.5937L13.4414 18.8086H14.7891L15.1992 17.543ZM22.8047 17.543L23.2148 18.8203H24.5625L23.4727 19.6055L23.8828 20.8828L22.8047 20.0859L21.7148 20.8828L22.125 19.5937L21.0469 18.8086H22.3828L22.8047 17.543ZM30.3984 17.543L30.8203 18.8203H32.1563L31.0781 19.6055L31.4883 20.8828L30.3984 20.0859L29.3203 20.8828L29.7305 19.5937L28.6406 18.8086H30L30.3984 17.543ZM38.0039 17.543L38.4141 18.8203H39.7617L38.6719 19.6055L39.082 20.8828L38.0039 20.0859L36.9141 20.8828L37.3242 19.5937L36.2461 18.8086H37.582L38.0039 17.543ZM3.79688 20.7656L4.21875 22.0547H5.55469L4.47656 22.8398L4.88672 24.1055L3.79688 23.3203L2.71875 24.1055L3.12891 22.8281L2.03906 22.043H3.39844L3.79688 20.7656ZM11.4023 20.7656L11.8125 22.0547H13.1602L12.0703 22.8398L12.4922 24.1055L11.4023 23.3203L10.3125 24.1055L10.7344 22.8281L9.64453 22.043H10.9805L11.4023 20.7656ZM18.9961 20.7656L19.418 22.0547H20.7422L19.6641 22.8398L20.0742 24.1055L18.9844 23.3203L17.9063 24.1055L18.3164 22.8281L17.2266 22.043H18.5742L18.9961 20.7656ZM26.6016 20.7656L27.0117 22.0547H28.3594L27.2695 22.8398L27.6914 24.1055L26.6016 23.3203L25.5117 24.1055L25.9336 22.8281L24.8438 22.043H26.1797L26.6016 20.7656ZM34.1953 20.7656L34.6172 22.0547H35.9531L34.875 22.8398L35.2852 24.1055L34.1953 23.3203L33.1172 24.1055L33.5273 22.8281L32.4492 22.043H33.7852L34.1953 20.7656ZM41.8008 20.7656L42.2109 22.0547H43.5586L42.4688 22.8398L42.8906 24.1055L41.8008 23.3203L40.7109 24.1055L41.1328 22.8281L40.043 22.043H41.3906L41.8008 20.7656ZM7.60547 24L8.01563 25.2773H9.36328L8.27344 26.0625L8.68359 27.3516L7.60547 26.5547L6.51562 27.3398L6.92578 26.0625L5.84766 25.2773H7.18359L7.60547 24ZM15.1992 24L15.6211 25.2773H16.957L15.8672 26.0625L16.2891 27.3516L15.1992 26.5547L14.1094 27.3398L14.5313 26.0625L13.4414 25.2773H14.7891L15.1992 24ZM22.8047 24L23.2148 25.2773H24.5625L23.4727 26.0625L23.8828 27.3516L22.8047 26.5547L21.7148 27.3398L22.125 26.0625L21.0469 25.2773H22.3828L22.8047 24ZM30.3984 24L30.8203 25.2773H32.1563L31.0781 26.0625L31.4883 27.3516L30.3984 26.5547L29.3203 27.3398L29.7305 26.0625L28.6406 25.2773H30L30.3984 24ZM38.0039 24L38.4141 25.2773H39.7617L38.6719 26.0625L39.082 27.3516L38.0039 26.5547L36.9141 27.3398L37.3242 26.0625L36.2461 25.2773H37.582L38.0039 24ZM3.79688 27.2344L4.21875 28.5117H5.55469L4.47656 29.2969L4.88672 30.5742L3.79688 29.7891L2.71875 30.5742L3.12891 29.2852L2.03906 28.5H3.39844L3.79688 27.2344ZM11.4023 27.2344L11.8125 28.5117H13.1602L12.0703 29.2969L12.4922 30.5742L11.4023 29.7891L10.3125 30.5742L10.7344 29.2852L9.64453 28.5H10.9805L11.4023 27.2344ZM18.9961 27.2344L19.418 28.5117H20.7422L19.6875 29.2969L20.0977 30.5742L19.0078 29.7891L17.9297 30.5742L18.3398 29.2852L17.25 28.5H18.5977L18.9961 27.2344ZM26.6016 27.2344L27.0117 28.5117H28.3594L27.2695 29.2969L27.6914 30.5742L26.6016 29.7891L25.5117 30.5742L25.9336 29.2852L24.8438 28.5H26.1797L26.6016 27.2344ZM34.1953 27.2344L34.6172 28.5117H35.9531L34.875 29.2969L35.2852 30.5742L34.1953 29.7891L33.1172 30.5742L33.5273 29.2852L32.4492 28.5H33.7852L34.1953 27.2344ZM41.8008 27.2344L42.2109 28.5117H43.5586L42.4688 29.2969L42.8906 30.5742L41.8008 29.7891L40.7109 30.5742L41.1328 29.2852L40.043 28.5H41.3906L41.8008 27.2344Z" fill="white"/>
</g>
<defs>
<clipPath id="clip0_691_1514">
<rect width="80" height="60" rx="8" fill="white"/>
</clipPath>
</defs>
</svg>
